<svg version="1" xmlns="http://www.w3.org/2000/svg" width="624" height="514pt" viewBox="0 0 468 514"><path d="M221.2 45.7A160 160 0 0 0 163 61c-22.6 11.6-35.2 27.3-39 48.4a93 93 0 0 0 .3 25.5c2.3 12 6.5 20.3 15 29.3a85.6 85.6 0 0 0 37.1 22l8.5 2.6c.5.2-2.2 1.3-6.4 2.4-30.5 8.7-53.4 26-63.4 48.2a85.6 85.6 0 0 0 3 74.3c14.5 24.5 44.8 40.8 87.3 46.8 13 1.8 48.6 1.8 59 0 41.8-7.4 70.5-26.7 84.7-57.1 5.3-11.3 11-31.8 11-39.2v-2.5h-12.8c-14.6 0-12.7-1-14.3 7.7-3.6 18.9-14 37.7-26.2 47.4-18.7 14.8-43 21.9-72.4 21-26.3-1-43.2-7.3-57.3-21.4-5.4-5.4-7.3-8-9.7-13a72 72 0 0 1-3.4-52c8.5-25.7 35.8-42.4 76.6-47l10.1-1.1 3.1-.4v-23.8l-10.3-1.6c-21.5-3.6-40-10.8-51-20a47.1 47.1 0 0 1-16.4-43.1c2.4-26 18.9-40.8 48.7-44.2A90.2 90.2 0 0 1 289 85.7a126.5 126.5 0 0 1 30.5 33.4c.7 1 2 .5 10.4-3.9 7.2-3.7 9.6-5.3 9.3-6.1-1-2.7-6.6-11.9-10.6-17.2a122.6 122.6 0 0 0-45-36.7 93.8 93.8 0 0 0-44.8-9.6l-17.6.1z"/></svg>
