<svg xmlns="http://www.w3.org/2000/svg" width="75" height="100" version="1"><path d="M31.08 4.82c-3.4 7.2-5.93 14.58-7.6 22.16-1.66 7.57-2.5 15.19-2.5 22.85 0 7.7.86 15.33 2.56 22.88 1.7 7.56 4.18 14.97 7.44 22.24.18.43.27.8.3 1.1.01.3-.1.56-.36.75-.25.2-.63.34-1.15.43-.52.1-1.23.14-2.12.14-.65 0-1.2-.02-1.67-.06-.46-.03-.87-.1-1.2-.21a3.3 3.3 0 0 1-.84-.38c-.21-.14-.38-.3-.48-.48a108.01 108.01 0 0 1-5.1-11.1 99.79 99.79 0 0 1-3.71-11.4 93.59 93.59 0 0 1-2.18-35.72 102.4 102.4 0 0 1 6.1-23.2c1.47-3.77 3.11-7.5 4.94-11.18a.65.65 0 0 1 .3-.38c.16-.1.38-.21.67-.32.28-.1.68-.19 1.18-.24.5-.05 1.15-.08 1.93-.08.83 0 1.49.05 1.99.16.5.1.9.25 1.18.43.29.18.45.41.49.7.03.29-.02.59-.17.91zM63.96 50a95.42 95.42 0 0 1-6.7 35.16 104.1 104.1 0 0 1-5.07 11.09c-.1.18-.27.34-.48.48-.22.14-.5.27-.83.38-.34.1-.75.18-1.21.21a22.14 22.14 0 0 1-3.84-.08 2.4 2.4 0 0 1-1.13-.43.87.87 0 0 1-.32-.75c.02-.3.11-.67.3-1.1 3.29-7.23 5.78-14.64 7.46-22.21a105.3 105.3 0 0 0-7.57-67.92c-.15-.32-.2-.62-.17-.91.04-.29.2-.52.49-.7.28-.18.68-.32 1.18-.43.5-.1 1.16-.16 1.99-.16.75 0 1.38.03 1.88.08s.9.14 1.2.24c.31.11.53.22.68.32.14.11.25.24.32.38a120.12 120.12 0 0 1 8.67 22.64 90.51 90.51 0 0 1 3.15 23.71z"/></svg>
