<svg xmlns="http://www.w3.org/2000/svg" width="45.15" height="45.15" overflow="visible"><path fill="none" stroke="#010101" stroke-width="3" d="M0 0h45.15v45.15H0z"/><path fill="#010101" d="M21.52 12.1l-3.06 10.64c3.15-4.35 5.56-7.2 7.23-8.58s3.28-2.06 4.83-2.06c.84 0 1.54.29 2.08.86.55.57.82 1.31.82 2.23 0 .93-.25 2.17-.77 3.71l-3.24 9.77a10.5 10.5 0 0 0-.56 2.07c0 .2.05.38.16.53.11.14.23.2.35.2.17 0 .37-.09.6-.28.74-.65 1.54-1.64 2.4-2.98l.73.44c-1.38 2.05-2.7 3.5-3.93 4.36a4.3 4.3 0 0 1-2.33.87c-.55 0-.99-.17-1.32-.52a2 2 0 0 1-.49-1.42c0-.75.3-2.04.92-3.87l3.11-9.42c.4-1.17.6-2.09.6-2.74 0-.32-.12-.57-.34-.77s-.5-.29-.82-.29c-.47 0-1.04.19-1.7.56-1.26.7-2.57 1.86-3.93 3.48s-2.8 3.68-4.3 6.2a21.72 21.72 0 0 0-2 4.35l-1.14 3.88h-3.48l4.23-14.69c.5-1.75.75-2.8.75-3.17 0-.34-.14-.64-.41-.9a1.4 1.4 0 0 0-1-.38c-.18 0-.5.03-.96.1l-.86.14-.2-.85 8.03-1.47z"/></svg>
