<svg xmlns="http://www.w3.org/2000/svg" viewBox="0 0 100 125"><path d="M92.5 47.5H80.6l-28.1-14v-16c0-1.4-1.1-2.5-2.5-2.5s-2.5 1.1-2.5 2.5v16l-28.1 14H7.5A2.5 2.5 0 0 0 5 50v32.5C5 83.9 6.1 85 7.5 85s2.5-1.1 2.5-2.5v-30h9.4l29.5 14.7c.4.2.7.3 1.1.3s.8-.1 1.1-.3l29.5-14.7H90v30c0 1.4 1.1 2.5 2.5 2.5s2.5-1.1 2.5-2.5V50c0-1.4-1.1-2.5-2.5-2.5zM50 62.2L25.6 50 50 37.8 74.4 50 50 62.2z"/><path d="M8.2 33.2c-1 1-1 2.6 0 3.5l5 5c.5.5 1.1.7 1.8.7s1.3-.2 1.8-.7l10-10c1-1 1-2.6 0-3.5-1-1-2.6-1-3.5 0L15 36.5l-3.2-3.2c-1-1-2.6-1-3.6-.1zM78.2 41.8c.5.5 1.1.7 1.8.7s1.3-.2 1.8-.7l3.2-3.2 3.2 3.2c.5.5 1.1.7 1.8.7s1.3-.2 1.8-.7c1-1 1-2.6 0-3.5L88.5 35l3.2-3.2c1-1 1-2.6 0-3.5-1-1-2.6-1-3.5 0L85 31.5l-3.2-3.2c-1-1-2.6-1-3.5 0-1 1-1 2.6 0 3.5l3.2 3.2-3.2 3.2c-1 1-1 2.6-.1 3.6z"/></svg>
