<svg xmlns="http://www.w3.org/2000/svg" width="20" height="20"><path d="M5 3v2h1v2.36l-4.61 7.88a1.8 1.8 0 0 0-.05 1.87c.33.54.95.89 1.66.89h14c.71 0 1.33-.35 1.65-.89a1.8 1.8 0 0 0-.04-1.87L14 7.36V5h1V3h-2.5a.5.5 0 0 0-.5.5v4c0 .1.03.4.07.48l3.94 6.78c.2.33.18.6.04.84-.14.22-.4.4-.8.4H4.75c-.4 0-.66-.18-.8-.4-.14-.23-.17-.5.03-.84l3.95-6.78c.04-.08.07-.39.07-.48v-4a.5.5 0 0 0-.5-.5z"/><path d="M7.3 11.06L5 15h10l-1.67-2.92c-1.3.23-4.48-.89-6.03-1.02zm1.18 1.4a1 1 0 1 1 0 2 1 1 0 0 1 0-2z"/><circle r="1.15" cy="2.42" cx="10.62" stroke-width="1.13"/><ellipse ry=".65" rx=".64" cy="5.59" cx="9.47" stroke-width=".82"/><circle r="1.09" cy="9.67" cx="10.73"/></svg>
