<svg xmlns="http://www.w3.org/2000/svg" width="617" height="301" overflow="visible"><path d="M186.1 98.7l-2.3 8.5h-19.6L148.5 166a402.3 402.3 0 0 1-20.7 58.7c-9.3 19.6-19.4 33.1-30.1 40.6a42.6 42.6 0 0 1-24.5 8.6c-5.4 0-9.9-1.7-13.6-4.8a10.6 10.6 0 0 1-4.2-8.7c0-2.9 1.2-5.3 3.4-7.4 2.2-2.1 5-3.1 8.2-3.1 2.4 0 4.4.7 6 2.2 1.6 1.5 2.4 3.3 2.4 5.2s-.8 3.8-2.5 5.5c-1.3 1.2-2 2.1-2 2.8 0 .8.3 1.4 1 1.8.7.6 2 1 3.6 1a24 24 0 0 0 11.9-3.6c4.2-2.4 7.9-6 11-10.7a81.5 81.5 0 0 0 9.3-20.4c1.3-3.7 4.7-15.8 10.4-36.4l25.2-90h-25.5l1.9-8.5c8.1 0 13.8-.5 17-1.5 3.3-1 6.2-3 8.9-5.8s5.9-8.2 9.6-16c5-10.6 9.8-18.8 14.3-24.6 6.3-7.9 12.8-13.7 19.7-17.7s13.4-5.9 19.5-5.9c6.4 0 11.5 1.7 15.4 5.1 3.9 3.4 5.8 7 5.8 11 0 3.1-1 5.7-3 7.8s-4.6 3.1-7.8 3.1c-2.7 0-4.9-.7-6.6-2.3a7.4 7.4 0 0 1-2.6-5.7c0-1.4.6-3.1 1.8-5.2 1.1-2 1.7-3.5 1.7-4.2 0-1.2-.3-2.1-1-2.7-1.1-.9-2.6-1.4-4.6-1.4-5.1 0-9.7 1.9-13.7 5.5A62.1 62.1 0 0 0 179.6 61a748 748 0 0 0-12.9 37.7h19.4zM329.8 267.8v5a127.2 127.2 0 0 1-33.6-23.5c-12.7-12.8-22.6-27.9-29.5-45.2s-10.4-35.3-10.4-54c0-27.2 6.8-52.1 20.4-74.6s31.2-38.6 53-48.3v5c-10.9 6-19.9 14.2-27 24.6-7 10.4-12.2 23.6-15.7 39.6s-5.2 32.6-5.2 50c0 18.8 1.5 36 4.4 51.4 2.3 12.2 5.1 22 8.4 29.3a94.3 94.3 0 0 0 35.2 40.7zM396 95.7c4.3 4.6 7.6 9.1 9.8 13.7 1.5 3.2 4.1 11.7 7.7 25.5l11.5-17.7c3-4.2 6.8-8.3 11.2-12.2s8.2-6.5 11.5-8c2-.8 4.4-1.3 7-1.3 3.7 0 6.7 1 9 3.2s3.3 4.5 3.3 7.5c0 3.4-.7 5.7-2 7a12 12 0 0 1-8.4 3.3c-1.8 0-3.7-.4-5.8-1.2a31 31 0 0 0-8.3-2.3c-2 0-4.5 1.3-7.4 3.8a105.4 105.4 0 0 0-19.3 26.6l10.8 45c1.6 7 3 11.1 4 12.5s2.3 2 3.4 2c1.8 0 3.9-1 6.3-3 4.7-4 8.7-9.3 12-15.8l4.7 2.4a82.2 82.2 0 0 1-20.9 25.8c-4.7 3.8-8.8 5.8-12 5.8-5 0-8.8-2.8-11.6-8.2a324 324 0 0 1-11.4-44.2c-13.8 23.7-24.8 39-33.1 45.8a25.2 25.2 0 0 1-15.7 6.6c-3.5 0-6.7-1.3-9.7-3.8a9.8 9.8 0 0 1-3.1-7.7 9.8 9.8 0 0 1 10-10c2.8 0 5.8 1.4 9 4.3 2.3 2.1 4 3.2 5.3 3.2 1 0 2.4-.7 4-2.2 4.2-3.3 9.8-10.5 17-21.5s11.8-19 14-24l-8.8-34.4c-2-5.8-4.7-10-7.9-12.3-3.2-2.4-8-3.7-14.2-3.7l-7 .3v-4.8l35.1-6zM488.1 32.2v-5a124.5 124.5 0 0 1 33.7 23.4 135 135 0 0 1 29.4 45.2c7 17.3 10.4 35.3 10.4 54a142 142 0 0 1-20.3 74.7 116.5 116.5 0 0 1-53.2 48.3v-5c11-6.1 20-14.4 27-24.7 7.2-10.4 12.4-23.5 15.9-39.5a277.2 277.2 0 0 0 .7-101.5c-2.2-12.2-5-22-8.4-29.3a98.3 98.3 0 0 0-35.2-40.6z"/></svg>
